<?xml version="1.0" encoding="utf-8"?>
<!-- Generator: Adobe Illustrator 26.0.2, SVG Export Plug-In . SVG Version: 6.00 Build 0)  -->
<svg version="1.1" id="Layer_1" xmlns="http://www.w3.org/2000/svg" xmlns:xlink="http://www.w3.org/1999/xlink" x="0px" y="0px"
	 viewBox="0 0 960 640" style="enable-background:new 0 0 960 640;" xml:space="preserve">
<style type="text/css">
	.st0{fill-rule:evenodd;clip-rule:evenodd;fill:#C5C5C5;}
	.st1{fill-rule:evenodd;clip-rule:evenodd;fill:#FFFFFF;}
	.st2{fill:#FFFFFF;}
</style>
<g>
	<polygon class="st0" points="199,516.4 199,123.6 461.1,123.6 461.1,516.4 	"/>
	<g>
		<polygon class="st0" points="498.9,516.4 498.9,123.6 761,123.6 761,516.4 		"/>
		<g>
			<g>
				<g>
					<polyline class="st1" points="671.9,456.2 695.8,456.2 695.8,440.3 678.1,440.3 678.1,411.5 693.3,411.5 693.3,395.6 
						678.1,395.6 678.1,367.8 694.7,367.8 694.7,352 671.9,352 671.9,456.2 					"/>
				</g>
				<g>
					<polyline class="st1" points="654.8,456.2 654.8,367.9 664.8,367.9 664.8,352 638.5,352 638.5,367.9 648.6,367.9 648.6,456.2 
						654.8,456.2 					"/>
				</g>
				<g>
					<path class="st1" d="M625.6,422h-11.1l5.6-48.8L625.6,422 M627.4,436.8l2.2,19.4h6.2L623.9,352h-7.6l-11.9,104.2h6.2l2.2-19.4
						H627.4z"/>
				</g>
				<g>
					<path class="st1" d="M592,447L592,447c-1.2,5.8-3.2,9.8-5.5,11.2l0,0.1c-1.2,0.5-2.4,0.8-3.5,0.8c0,0,0,0,0,0h0c0,0,0,0,0,0
						c-1.6,0-3.2-0.5-4.8-1.4l0,0c-3.7-3-6.8-9.8-8.9-18.9l0,0.1c-1.2-5.5-2.1-11.7-2.6-18.1l0,0c-0.4-5.6-0.6-11.4-0.7-17.1v0
						c0-5.6,0.2-11.3,0.7-16.8l0,0c0.5-6.5,1.3-12.7,2.6-18.3h0c2.1-9.1,5.2-15.7,8.9-18.8l0,0.1c1.6-0.9,3.2-1.4,4.8-1.4
						c0,0,0,0,0,0h0c0,0,0,0,0,0c1.6,0,3.2,0.5,4.8,1.4l0-0.1c3.6,3,6.7,9.7,8.8,18.8l0,0.1l0.9,4.4l-5.1,7.8l-0.1,0
						c-0.6-4.1-1.6-7.7-2.8-10.4l0,0c-1.9-4.1-4.2-6.4-6.5-6.4h0c-2.4,0-4.6,2.3-6.5,6.4l0,0c-1.4,2.9-2.4,6.8-3,11.3l0.1-0.1
						c-0.8,6.9-1.3,14.1-1.3,21.4c0,0.2,0,0.4,0,0.6v0c0,0.2,0,0.5,0,0.7c0,7.3,0.4,14.6,1.3,21.6l-0.1,0c0.6,4.5,1.7,8.3,3,11.2
						l0,0c1.9,3.9,4.2,6,6.5,6h0c2.4,0,4.6-2.1,6.6-6l0,0.1l0.4-1.1l0-0.1c1.3-3.1,2.1-7.6,2.1-12.4l0.1,0v-10.5h-10.4v-15.9h16
						v58.8H592v-8.9"/>
				</g>
			</g>
			<g>
				<g>
					<path class="st1" d="M666.3,221.8l9.7,6.2v0.2c4.3,2.5,7.4,13.4,7.4,26.1c0,2.1-0.1,4.1-0.3,6.1l0,0l-0.2,2.6l0,0
						c-0.4,5-1.2,9.7-2.4,13.7l0,0c-1.7,6-4.1,10-6.7,11.1l0-0.1c-1.2,0.7-2.5,1-3.7,1c-3.1,0-6.2-2.1-8.9-6.1l0-0.1
						c-2.3-3.5-4.3-8.3-5.9-14.1l0,0l4.9-11.2l0,0c1.4,5.5,3.2,9.9,5.3,13.1v-0.1c1.3,1.5,2.7,2.3,4.1,2.3c1.8,0,3.5-1.2,5.1-3.5v0
						l0.4-0.6l0-0.1c1.3-2.4,2.1-6.5,2.1-10.9c0-5.9-1.4-11.1-3.4-12.5V245l-9.8-6.3l0,0c-4.4-3.6-7.3-15-7.3-28
						c0-1.4,0-2.8,0.1-4.2l0,0c0.5-10.8,3.1-19.8,6.6-23.5l0,0.1c2.1-2,4.2-3,6.4-3c1.6,0,3.1,0.5,4.6,1.5l-0.1-0.1
						c3.4,1.6,6.5,7.4,8.3,15.9l0-0.2l-4.8,11.4l0,0c-1.3-6.1-3.4-10.5-5.9-12.2l0,0.1c-0.8-0.5-1.6-0.8-2.5-0.8
						c-1.3,0-2.7,0.7-3.9,2l0-0.1c-1.7,1.7-2.8,6.2-2.8,11.4c0,0.9,0,1.8,0.1,2.6l0,0C663.3,216.9,664.7,221,666.3,221.8"/>
				</g>
				<g>
					<path class="st1" d="M632.4,289.5L632.4,289.5c0,0,0.1,0,0.1,0c5.3,0,10.2-8.5,12.7-22l0,0c0.9-5,1.4-10.5,1.4-16
						c0-0.3,0-0.6,0-0.9l0,0v-68h-6.2v68h0c0,12.6-3.6,22.8-8,22.8c-4.4,0-8-10.2-8-22.8v-68h-6.3v68v0c0,0.3,0,0.6,0,0.9
						c0,5.6,0.5,11.1,1.4,16.1h0c2.5,13.5,7.4,21.9,12.7,21.9C632.3,289.5,632.4,289.5,632.4,289.5"/>
				</g>
				<g>
					<path class="st1" d="M595.9,182.6h-15.5v104.2H597l0,0c4-0.3,7.7-6.7,9.6-16.8l0,0.1c0.7-4.4,1.1-9.3,1.1-14.1
						c0-4.3-0.3-8.6-0.8-12.6l0.1,0c-1-7.1-3.3-12.1-6-13.1l0,0.2c1.8-2.3,3.2-6.5,3.9-11.7l0-0.1c0.5-3.3,0.7-6.8,0.7-10.3
						c0-5-0.5-10-1.4-14.3l0,0.2c-1.9-7.3-4.9-11.5-8.1-11.5c-0.1,0-0.1,0-0.2,0 M596.2,270.8h-9.5v-32.5h9.5h0
						c3.1,0.1,5.7,7.3,5.7,16.2s-2.5,16.1-5.7,16.2L596.2,270.8z M595.5,224.3h-8.8v-25.9h8.8c2.5,0,4.5,5.8,4.5,13
						C600.1,218.6,598,224.4,595.5,224.3L595.5,224.3z"/>
				</g>
			</g>
		</g>
	</g>
	<g>
		<g>
			<path class="st1" d="M299.6,229.9c7-8.1,6.6-47.1-7.7-47.1h-13.4v105h14.3C309.6,287.7,309.6,237.6,299.6,229.9 M292.9,238.5
				h-8.5v34.2h8.6C303.1,272.6,302.9,238.5,292.9,238.5z M292.9,198.3h-8.6v27.2h7.4C300.4,225.2,300.2,198.3,292.9,198.3z"/>
			<g>
				<rect x="316" y="182.5" class="st2" width="5.6" height="67.9"/>
				<g>
					<rect x="338.2" y="182.5" class="st2" width="5.7" height="67.9"/>
					<path class="st1" d="M321.6,250.4c0,11.9,2.9,23.2,8.3,23.2c5.4,0,8.3-11.4,8.3-23.2h5.7c0,29.3-7.4,38.4-14,38.4
						c-6.5,0-13.9-9.1-13.9-38.4"/>
				</g>
			</g>
			<path class="st1" d="M354,269.6l4.9-10.4c6.8,22.6,17.7,18.2,17.7-0.9c0-25.6-21.3-4.6-21.3-47.7c0-32.4,18.6-41.2,26.3-12.3
				l-4.5,9.5c-5.7-18.1-15.5-12.8-15.5,2.7c0,26.3,21,3.6,21,47.3C382.6,292.7,364.3,303.4,354,269.6"/>
		</g>
		<g>
			<polyline class="st1" points="264.9,400.1 264.9,353.4 270.7,353.4 270.7,443.3 285.2,443.3 285.2,458.4 264.9,458.4 			"/>
			<g>
				<polyline class="st1" points="294.5,458.4 289,458.4 300.5,353.4 307.9,353.4 320,458.4 314.2,458.4 304.4,370.7 				"/>
				<rect x="296.2" y="425.3" class="st2" width="16.2" height="14"/>
			</g>
			<polyline class="st1" points="328.4,399.9 328.4,353.4 335.4,353.4 353.3,431.2 353.3,353.4 359.2,353.4 359.2,458.4 
				352.4,458.4 334.1,378.4 334.1,458.4 328.4,458.4 328.4,399.9 			"/>
			<polyline class="st1" points="372.4,353.4 394.6,353.4 394.6,368.7 378.4,368.7 378.4,397.7 393.5,397.7 393.5,412.7 
				378.4,412.7 378.4,443 395.7,443 395.7,458.4 372.4,458.4 			"/>
		</g>
	</g>
</g>
</svg>
