<?xml version="1.0" encoding="utf-8"?>
<!-- Generator: Adobe Illustrator 26.0.2, SVG Export Plug-In . SVG Version: 6.00 Build 0)  -->
<svg version="1.1" id="Layer_1" xmlns="http://www.w3.org/2000/svg" xmlns:xlink="http://www.w3.org/1999/xlink" x="0px" y="0px"
	 viewBox="0 0 960 640" style="enable-background:new 0 0 960 640;" xml:space="preserve">
<style type="text/css">
	
		.st0{fill-rule:evenodd;clip-rule:evenodd;fill:#C4C5C5;stroke:#C4C5C5;stroke-width:3.9431;stroke-linecap:round;stroke-linejoin:round;stroke-miterlimit:10;}
	.st1{fill-rule:evenodd;clip-rule:evenodd;fill:#FFFFFF;}
</style>
<g>
	<polygon class="st0" points="303.5,190 304.2,190.6 303.9,192.1 302.5,195.5 302.5,197.8 302.2,199.9 302.8,204 303.9,208.9 
		303.5,211 303.2,217.2 303.7,219.5 303.7,225.3 303.2,226.7 304.2,228.9 303.7,231.2 303.2,234.4 302.5,235.3 303.2,237.7 
		304.2,240.6 304.6,244.4 304.3,246.8 304.8,248.3 304.6,255.6 304.2,257.1 304.3,259.5 303.9,264 302.4,266.9 301.7,269.5 
		301.7,272.6 303,278.8 302.8,281.8 303.5,284.5 303.5,291 302.8,293.3 302.5,298.7 303,306.7 303.7,310 303,315.1 302.4,317.6 
		302.4,321.6 301.7,323.7 301.7,329.1 302.5,333.3 303,337.2 302.5,340.3 303,345.2 303,350.4 302.5,352.1 303,354.5 303,361.9 
		302.5,364.8 303.2,367.6 303,370.5 302.8,374.9 303.5,376.1 303.7,379.3 302.2,383.9 300.8,389.2 301.9,394.5 301.5,395.6 
		302.5,399.3 303,404.7 302.8,406.8 303,410.8 303.5,412.8 303,415.2 303.5,418 303.2,419.2 302.5,422.1 303.5,422.7 302.8,427.3 
		303,434 302.4,438.6 303.2,444 304.2,448.1 302.5,449.4 300.2,449.5 295,450.4 279.9,450.4 276.6,450.8 270.1,450.3 262.7,449.6 
		259.5,449.9 250.2,450.1 246.3,449.8 237.4,449.8 235.4,450.1 232.1,449.4 228.6,449.8 223.7,450.1 222.2,450.4 218.5,450.1 
		214.2,449.4 208.2,449.1 204.5,449.4 202.4,449 198.1,449.1 192.1,449.9 191.5,448.1 192.4,444 193.3,438.6 192.6,434 192.8,427.3 
		192.1,422.7 193.1,422.1 192.4,419.3 192.1,418.1 192.6,415.2 192.1,412.8 192.6,410.9 192.8,406.9 192.6,404.7 193.1,399.3 
		194.1,395.7 193.8,394.7 194.9,389.3 193.5,383.9 192,379.3 192.1,376.1 192.8,375 192.6,370.5 192.4,367.8 193.1,364.9 
		192.6,361.9 192.6,354.6 193.1,352.2 192.6,350.4 192.6,345.4 193.1,340.5 192.6,337.3 193.1,333.5 193.9,329.2 193.9,323.8 
		193.3,321.7 193.3,317.6 192.6,315.1 192,310.2 192.6,306.8 193.1,298.7 192.8,293.3 192.1,291 192.1,284.5 192.8,281.9 
		192.6,278.9 193.9,272.6 193.9,269.5 193.3,266.9 191.8,264 191.3,259.5 191.5,257.2 191.1,255.7 190.8,248.3 191.3,247 
		191.1,244.6 191.5,240.6 192.4,237.8 193.1,235.4 192.4,234.4 192,231.2 191.5,228.9 192.4,226.8 192,225.4 192,219.7 192.4,217.2 
		192.1,211.1 191.8,209 192.8,204.1 193.5,199.9 193.1,197.8 193.1,195.6 191.8,192.2 191.5,190.6 192.1,190.1 198.1,190.7 
		202.4,191 204.5,190.6 208.2,190.7 214.2,190.5 218.5,189.9 222.2,189.5 223.7,189.9 228.6,190.2 232.1,190.5 235.4,189.9 
		237.4,190.2 246.3,190.2 250.2,189.9 259.5,190.1 262.7,190.2 270.1,189.6 276.6,189.2 279.9,189.5 295,189.4 300.2,190.2 
		302.5,190.4 	"/>
	<polygon class="st1" points="244.8,300.3 235.4,300.3 247.8,221.4 260.1,300.3 250.7,300.3 255.2,418.6 240.5,418.6 	"/>
	<polygon class="st0" points="151.1,190 151.7,190.6 151.4,192.1 150.1,195.5 150.1,197.8 149.7,199.9 150.4,204 151.4,208.9 
		151.1,211 150.8,217.2 151.2,219.5 151.2,225.3 150.8,226.7 151.7,228.9 151.2,231.2 150.8,234.4 150.1,235.3 150.8,237.7 
		151.7,240.6 152.1,244.4 151.9,246.8 152.4,248.3 152.1,255.6 151.7,257.1 151.9,259.5 151.4,264 149.9,266.9 149.2,269.5 
		149.2,272.6 150.6,278.8 150.4,281.8 151.1,284.5 151.1,291 150.4,293.3 150.1,298.7 150.6,306.7 151.2,310 150.6,315.1 
		149.9,317.6 149.9,321.6 149.2,323.7 149.2,329.1 150.1,333.3 150.6,337.2 150.1,340.3 150.6,345.2 150.6,350.4 150.1,352.1 
		150.6,354.5 150.6,361.9 150.1,364.8 150.8,367.6 150.6,370.5 150.4,374.9 151.1,376.1 151.2,379.3 149.7,383.9 148.3,389.2 
		149.4,394.5 149.1,395.6 150.1,399.3 150.6,404.7 150.4,406.8 150.6,410.8 151.1,412.8 150.6,415.2 151.1,418 150.8,419.2 
		150.1,422.1 151.1,422.7 150.4,427.3 150.6,434 149.9,438.6 150.8,444 151.7,448.1 150.1,449.4 147.7,449.5 142.7,450.4 
		127.5,450.4 124.2,450.8 117.8,450.3 110.4,449.6 107,449.9 97.7,450.1 94,449.8 85.1,449.8 83.1,450.1 79.7,449.4 76.2,449.8 
		71.2,450.1 69.7,450.4 66.1,450.1 61.7,449.4 55.7,449.1 52.2,449.4 49.9,449 45.8,449.1 39.6,449.9 39,448.1 40,444 40.8,438.6 
		40.2,434 40.4,427.3 39.6,422.7 40.7,422.1 40,419.3 39.6,418.1 40.2,415.2 39.6,412.8 40.2,410.9 40.4,406.9 40.2,404.7 
		40.7,399.3 41.7,395.7 41.3,394.7 42.4,389.3 41,383.9 39.5,379.3 39.6,376.1 40.4,375 40.2,370.5 40,367.8 40.7,364.9 40.2,361.9 
		40.2,354.6 40.7,352.2 40.2,350.4 40.2,345.4 40.7,340.5 40.2,337.3 40.7,333.5 41.5,329.2 41.5,323.8 40.8,321.7 40.8,317.6 
		40.2,315.1 39.5,310.2 40.2,306.8 40.7,298.7 40.4,293.3 39.6,291 39.6,284.5 40.4,281.9 40.2,278.9 41.5,272.6 41.5,269.5 
		40.8,266.9 39.3,264 38.9,259.5 39,257.2 38.6,255.7 38.4,248.3 38.9,247 38.6,244.6 39,240.6 40,237.8 40.7,235.4 40,234.4 
		39.5,231.2 39,228.9 40,226.8 39.5,225.4 39.5,219.7 40,217.2 39.6,211.1 39.3,209 40.4,204.1 41,199.9 40.7,197.8 40.7,195.6 
		39.3,192.2 39,190.6 39.6,190.1 45.8,190.7 49.9,191 52.2,190.6 55.7,190.7 61.7,190.5 66.1,189.9 69.7,189.5 71.2,189.9 
		76.2,190.2 79.7,190.5 83.1,189.9 85.1,190.2 94,190.2 97.7,189.9 107,190.1 110.4,190.2 117.8,189.6 124.2,189.2 127.5,189.5 
		142.7,189.4 147.7,190.2 150.1,190.4 	"/>
	<path class="st1" d="M108.5,276.2c0-6.9-7.3-12.8-16.9-14.4l0,0h0.1v-40.4L77,270.6l14.8,37.1v-27.2H92l0,0
		c6.6,1.6,11.5,5.9,11.5,10.9l0,0v8.9l-4.4,118.3h7.4h7.4l-4.5-118.3L108.5,276.2L108.5,276.2z"/>
	<polygon class="st0" points="608.4,190 609,190.6 608.8,192.1 607.4,195.5 607.4,197.8 607,199.9 607.6,204 608.8,208.9 608.4,211 
		608.1,217.2 608.5,219.5 608.5,225.3 608.1,226.7 609,228.9 608.5,231.2 608.1,234.4 607.4,235.3 608.1,237.7 609,240.6 
		609.4,244.4 609.3,246.8 609.6,248.3 609.4,255.6 609,257.1 609.3,259.5 608.8,264 607.3,266.9 606.5,269.5 606.5,272.6 
		607.9,278.8 607.6,281.8 608.4,284.5 608.4,291 607.6,293.3 607.4,298.7 607.9,306.7 608.5,310 607.9,315.1 607.3,317.6 
		607.3,321.6 606.5,323.7 606.5,329.1 607.4,333.3 607.9,337.2 607.4,340.3 607.9,345.2 607.9,350.4 607.4,352.1 607.9,354.5 
		607.9,361.9 607.4,364.8 608.1,367.6 607.9,370.5 607.6,374.9 608.4,376.1 608.5,379.3 607,383.9 605.6,389.2 606.8,394.5 
		606.4,395.6 607.4,399.3 607.9,404.7 607.6,406.8 607.9,410.8 608.4,412.8 607.9,415.2 608.4,418 608.1,419.2 607.4,422.1 
		608.4,422.7 607.6,427.3 607.9,434 607.3,438.6 608.1,444 609,448.1 607.4,449.4 605,449.5 599.9,450.4 584.7,450.4 581.5,450.8 
		575,450.3 567.7,449.6 564.3,449.9 555.1,450.1 551.3,449.8 542.4,449.8 540.4,450.1 537,449.4 533.5,449.8 528.5,450.1 527,450.4 
		523.4,450.1 519,449.4 513,449.1 509.5,449.4 507.2,449 503.1,449.1 497,449.9 496.3,448.1 497.2,444 498.1,438.6 497.5,434 
		497.7,427.3 497,422.7 498,422.1 497.2,419.3 497,418.1 497.5,415.2 497,412.8 497.5,410.9 497.7,406.9 497.5,404.7 498,399.3 
		499,395.7 498.6,394.7 499.7,389.3 498.3,383.9 496.8,379.3 497,376.1 497.7,375 497.5,370.5 497.2,367.8 498,364.9 497.5,361.9 
		497.5,354.6 498,352.2 497.5,350.4 497.5,345.4 498,340.5 497.5,337.3 498,333.5 498.8,329.2 498.8,323.8 498.1,321.7 498.1,317.6 
		497.5,315.1 496.8,310.2 497.5,306.8 498,298.7 497.7,293.3 497,291 497,284.5 497.7,281.9 497.5,278.9 498.8,272.6 498.8,269.5 
		498.1,266.9 496.6,264 496.1,259.5 496.3,257.2 496,255.7 495.7,248.3 496.1,247 496,244.6 496.3,240.6 497.2,237.8 498,235.4 
		497.2,234.4 496.8,231.2 496.3,228.9 497.2,226.8 496.8,225.4 496.8,219.7 497.2,217.2 497,211.1 496.6,209 497.7,204.1 
		498.3,199.9 498,197.8 498,195.6 496.6,192.2 496.3,190.6 497,190.1 503.1,190.7 507.2,191 509.5,190.6 513,190.7 519,190.5 
		523.4,189.9 527,189.5 528.5,189.9 533.5,190.2 537,190.5 540.4,189.9 542.4,190.2 551.3,190.2 555.1,189.9 564.3,190.1 
		567.7,190.2 575,189.6 581.5,189.2 584.7,189.5 599.9,189.4 605,190.2 607.4,190.4 	"/>
	<path class="st1" d="M541.2,334.6c8.4,0,15.5,4.5,15.5,10.1l0,0l-2.8,73.9h14.8l-4.4-118.3h9.3l-12.3-78.9L549,300.3h9.4l-1,23.2
		l0,0c-3.3-3.6-9.4-6.1-16.3-6.1l0,0v-18.8l-9.4,28.3l9.4,21L541.2,334.6L541.2,334.6z"/>
	<polygon class="st0" points="455.9,190 456.5,190.6 456.3,192.1 455,195.5 455,197.8 454.5,199.9 455.3,204 456.3,208.9 455.9,211 
		455.6,217.2 456.1,219.5 456.1,225.3 455.6,226.7 456.5,228.9 456.1,231.2 455.6,234.4 455,235.3 455.6,237.7 456.5,240.6 
		457,244.4 456.8,246.8 457.3,248.3 457,255.6 456.5,257.1 456.8,259.5 456.3,264 454.8,266.9 454.1,269.5 454.1,272.6 455.5,278.8 
		455.3,281.8 455.9,284.5 455.9,291 455.3,293.3 455,298.7 455.5,306.7 456.1,310 455.5,315.1 454.8,317.6 454.8,321.6 454.1,323.7 
		454.1,329.1 455,333.3 455.5,337.2 455,340.3 455.5,345.2 455.5,350.4 455,352.1 455.5,354.5 455.5,361.9 455,364.8 455.6,367.6 
		455.5,370.5 455.3,374.9 455.9,376.1 456.1,379.3 454.5,383.9 453.1,389.2 454.4,394.5 453.9,395.6 455,399.3 455.5,404.7 
		455.3,406.8 455.5,410.8 455.9,412.8 455.5,415.2 455.9,418 455.6,419.2 455,422.1 455.9,422.7 455.3,427.3 455.5,434 454.8,438.6 
		455.6,444 456.5,448.1 455,449.4 452.6,449.5 447.5,450.4 432.4,450.4 429,450.8 422.6,450.3 415.2,449.6 412,449.9 402.6,450.1 
		398.8,449.8 389.9,449.8 387.9,450.1 384.5,449.4 381,449.8 376.2,450.1 374.5,450.4 371,450.1 366.5,449.4 360.6,449.1 357,449.4 
		354.7,449 350.6,449.1 344.6,449.9 344,448.1 344.9,444 345.7,438.6 345,434 345.2,427.3 344.6,422.7 345.5,422.1 344.9,419.3 
		344.6,418.1 345,415.2 344.6,412.8 345,410.9 345.2,406.9 345,404.7 345.5,399.3 346.6,395.7 346.1,394.7 347.2,389.3 345.9,383.9 
		344.4,379.3 344.6,376.1 345.2,375 345,370.5 344.9,367.8 345.5,364.9 345,361.9 345,354.6 345.5,352.2 345,350.4 345,345.4 
		345.5,340.5 345,337.3 345.5,333.5 346.4,329.2 346.4,323.8 345.7,321.7 345.7,317.6 345,315.1 344.4,310.2 345,306.8 345.5,298.7 
		345.2,293.3 344.6,291 344.6,284.5 345.2,281.9 345,278.9 346.4,272.6 346.4,269.5 345.7,266.9 344.1,264 343.7,259.5 344,257.2 
		343.5,255.7 343.2,248.3 343.7,247 343.5,244.6 344,240.6 344.9,237.8 345.5,235.4 344.9,234.4 344.4,231.2 344,228.9 344.9,226.8 
		344.4,225.4 344.4,219.7 344.9,217.2 344.6,211.1 344.1,209 345.2,204.1 345.9,199.9 345.5,197.8 345.5,195.6 344.1,192.2 
		344,190.6 344.6,190.1 350.6,190.7 354.7,191 357,190.6 360.6,190.7 366.5,190.5 371,189.9 374.5,189.5 376.2,189.9 381,190.2 
		384.5,190.5 387.9,189.9 389.9,190.2 398.8,190.2 402.6,189.9 412,190.1 415.2,190.2 422.6,189.6 429,189.2 432.4,189.5 
		447.5,189.4 452.6,190.2 455,190.4 	"/>
	<path class="st1" d="M387.2,276.2c0-6.9,7.1-12.8,16.9-14.4l0,0h-0.1v-40.4l14.8,49.2l-14.8,37.1v-27.2h-0.3l0,0
		c-6.8,1.6-11.6,5.9-11.6,10.9l0,0v8.9l4.5,118.3h-7.4h-7.4l4.4-118.3L387.2,276.2L387.2,276.2z"/>
	<polygon class="st0" points="760.9,190 761.5,190.6 761.2,192.1 759.9,195.5 759.9,197.8 759.5,199.9 760.1,204 761.2,208.9 
		760.9,211 760.5,217.2 761,219.5 761,225.3 760.5,226.7 761.5,228.9 761,231.2 760.5,234.4 759.9,235.3 760.5,237.7 761.5,240.6 
		761.9,244.4 761.6,246.8 762.1,248.3 761.9,255.6 761.5,257.1 761.6,259.5 761.2,264 759.6,266.9 759,269.5 759,272.6 760.4,278.8 
		760.1,281.8 760.9,284.5 760.9,291 760.1,293.3 759.9,298.7 760.4,306.7 761,310 760.4,315.1 759.6,317.6 759.6,321.6 759,323.7 
		759,329.1 759.9,333.3 760.4,337.2 759.9,340.3 760.4,345.2 760.4,350.4 759.9,352.1 760.4,354.5 760.4,361.9 759.9,364.8 
		760.5,367.6 760.4,370.5 760.1,374.9 760.9,376.1 761,379.3 759.5,383.9 758.1,389.2 759.2,394.5 758.9,395.6 759.9,399.3 
		760.4,404.7 760.1,406.8 760.4,410.8 760.9,412.8 760.4,415.2 760.9,418 760.5,419.2 759.9,422.1 760.9,422.7 760.1,427.3 
		760.4,434 759.6,438.6 760.5,444 761.5,448.1 759.9,449.4 757.5,449.5 752.3,450.4 737.2,450.4 733.9,450.8 727.4,450.3 720,449.6 
		716.8,449.9 707.5,450.1 703.6,449.8 694.8,449.8 692.8,450.1 689.4,449.4 685.9,449.8 681,450.1 679.5,450.4 675.9,450.1 
		671.5,449.4 665.5,449.1 661.8,449.4 659.7,449 655.5,449.1 649.4,449.9 648.8,448.1 649.7,444 650.6,438.6 649.9,434 650.1,427.3 
		649.4,422.7 650.4,422.1 649.7,419.3 649.4,418.1 649.9,415.2 649.4,412.8 649.9,410.9 650.1,406.9 649.9,404.7 650.4,399.3 
		651.4,395.7 651.1,394.7 652.2,389.3 650.8,383.9 649.2,379.3 649.4,376.1 650.1,375 649.9,370.5 649.7,367.8 650.4,364.9 
		649.9,361.9 649.9,354.6 650.4,352.2 649.9,350.4 649.9,345.4 650.4,340.5 649.9,337.3 650.4,333.5 651.2,329.2 651.2,323.8 
		650.6,321.7 650.6,317.6 649.9,315.1 649.2,310.2 649.9,306.8 650.4,298.7 650.1,293.3 649.4,291 649.4,284.5 650.1,281.9 
		649.9,278.9 651.2,272.6 651.2,269.5 650.6,266.9 649.1,264 648.6,259.5 648.8,257.2 648.4,255.7 648.1,248.3 648.6,247 
		648.4,244.6 648.8,240.6 649.7,237.8 650.4,235.4 649.7,234.4 649.2,231.2 648.8,228.9 649.7,226.8 649.2,225.4 649.2,219.7 
		649.7,217.2 649.4,211.1 649.1,209 650.1,204.1 650.8,199.9 650.4,197.8 650.4,195.6 649.1,192.2 648.8,190.6 649.4,190.1 
		655.5,190.7 659.7,191 661.8,190.6 665.5,190.7 671.5,190.5 675.9,189.9 679.5,189.5 681,189.9 685.9,190.2 689.4,190.5 
		692.8,189.9 694.8,190.2 703.6,190.2 707.5,189.9 716.8,190.1 720,190.2 727.4,189.6 733.9,189.2 737.2,189.5 752.3,189.4 
		757.5,190.2 759.9,190.4 	"/>
	<path class="st1" d="M716.7,334.6c-8.4,0-15.5,4.5-15.5,10.1l0,0l2.8,73.9h-14.8l4.4-118.3h-9.4l12.4-78.9l12.3,78.9h-9.4l0.9,23.2
		l0,0c3.4-3.6,9.5-6.1,16.4-6.1l0,0v-18.8l9.4,28.3l-9.4,21L716.7,334.6L716.7,334.6z"/>
	<polygon class="st0" points="920.1,190 920.8,190.6 920.6,192.1 919.1,195.5 919.1,197.8 918.7,199.9 919.5,204 920.6,208.9 
		920.1,211 919.8,217.2 920.4,219.5 920.4,225.3 919.8,226.7 920.8,228.9 920.4,231.2 919.8,234.4 919.1,235.3 919.8,237.7 
		920.8,240.6 921.2,244.4 921.1,246.8 921.6,248.3 921.2,255.6 920.8,257.1 921.1,259.5 920.6,264 919,266.9 918.2,269.5 
		918.2,272.6 919.6,278.8 919.5,281.8 920.1,284.5 920.1,291 919.5,293.3 919.1,298.7 919.6,306.7 920.4,310 919.6,315.1 919,317.6 
		919,321.6 918.2,323.7 918.2,329.1 919.1,333.3 919.6,337.2 919.1,340.3 919.6,345.2 919.6,350.4 919.1,352.1 919.6,354.5 
		919.6,361.9 919.1,364.8 919.8,367.6 919.6,370.5 919.5,374.9 920.1,376.1 920.4,379.3 918.7,383.9 917.2,389.2 918.5,394.5 
		918,395.6 919.1,399.3 919.6,404.7 919.5,406.8 919.6,410.8 920.1,412.8 919.6,415.2 920.1,418 919.8,419.2 919.1,422.1 
		920.1,422.7 919.5,427.3 919.6,434 919,438.6 919.8,444 920.8,448.1 919.1,449.4 916.6,449.5 911.2,450.4 895.1,450.4 891.6,450.8 
		884.8,450.3 876.9,449.6 873.4,449.9 863.5,450.1 859.5,449.8 850.1,449.8 848,450.1 844.4,449.4 840.6,449.8 835.5,450.1 
		833.8,450.4 830,450.1 825.3,449.4 818.9,449.1 815.2,449.4 812.8,449 808.3,449.1 801.9,449.9 801.3,448.1 802.3,444 803.2,438.6 
		802.4,434 802.7,427.3 801.9,422.7 802.9,422.1 802.3,419.3 801.9,418.1 802.4,415.2 801.9,412.8 802.4,410.9 802.7,406.9 
		802.4,404.7 802.9,399.3 804,395.7 803.7,394.7 804.8,389.3 803.4,383.9 801.8,379.3 801.9,376.1 802.7,375 802.4,370.5 
		802.3,367.8 802.9,364.9 802.4,361.9 802.4,354.6 802.9,352.2 802.4,350.4 802.4,345.4 802.9,340.5 802.4,337.3 802.9,333.5 
		803.9,329.2 803.9,323.8 803.2,321.7 803.2,317.6 802.4,315.1 801.8,310.2 802.4,306.8 802.9,298.7 802.7,293.3 801.9,291 
		801.9,284.5 802.7,281.9 802.4,278.9 803.9,272.6 803.9,269.5 803.2,266.9 801.5,264 801,259.5 801.3,257.2 800.8,255.7 
		800.5,248.3 801,247 800.8,244.6 801.3,240.6 802.3,237.8 802.9,235.4 802.3,234.4 801.8,231.2 801.3,228.9 802.3,226.8 
		801.8,225.4 801.8,219.7 802.3,217.2 801.9,211.1 801.5,209 802.7,204.1 803.4,199.9 802.9,197.8 802.9,195.6 801.5,192.2 
		801.3,190.6 801.9,190.1 808.3,190.7 812.8,191 815.2,190.6 818.9,190.7 825.3,190.5 830,189.9 833.8,189.5 835.5,189.9 
		840.6,190.2 844.4,190.5 848,189.9 850.1,190.2 859.5,190.2 863.5,189.9 873.4,190.1 876.9,190.2 884.8,189.6 891.6,189.2 
		895.1,189.5 911.2,189.4 916.6,190.2 919.1,190.4 	"/>
	<path class="st1" d="M863,276.2c0-6.9-7.1-12.8-16.8-14.4l0,0v-40.4l-14.8,49.2l14.8,37.1v-27.2h0.3l0,0
		c6.8,1.6,11.6,5.9,11.6,10.9l0,0v8.9l-4.5,118.3h7.4h7.4L864,300.3L863,276.2L863,276.2z"/>
	<path class="st1" d="M859.1,276.2c0-6.9,7.1-12.8,16.8-14.4l0,0h-0.1v-40.4l14.8,49.2l-14.8,37.1v-27.2h-0.3l0,0
		c-6.6,1.6-11.5,5.9-11.5,10.9l0,0L859.1,276.2L859.1,276.2z"/>
</g>
</svg>
