<?xml version="1.0" encoding="utf-8"?>
<!-- Generator: Adobe Illustrator 26.0.2, SVG Export Plug-In . SVG Version: 6.00 Build 0)  -->
<svg version="1.1" id="Layer_1" xmlns="http://www.w3.org/2000/svg" xmlns:xlink="http://www.w3.org/1999/xlink" x="0px" y="0px"
	 viewBox="0 0 960 640" style="enable-background:new 0 0 960 640;" xml:space="preserve">
<style type="text/css">
	.st0{fill-rule:evenodd;clip-rule:evenodd;fill:#C4C5C5;}
	.st1{fill-rule:evenodd;clip-rule:evenodd;fill:#FFFFFF;}
</style>
<g>
	<polygon class="st0" points="540.2,402.3 540.9,408.2 540.7,416.7 541.5,422.6 540.3,423.4 541.2,427.1 541.5,428.5 540.9,432.1 
		541.5,435.1 540.9,437.6 540.7,442.7 540.9,445.4 540.3,452.2 539,457 539.5,458.3 538.2,465.1 539.9,471.8 541.8,477.6 
		541.5,481.6 540.7,483.2 540.9,488.8 541.2,492.3 540.3,495.9 540.9,499.7 540.9,509 540.3,512 540.9,514.4 540.9,520.9 
		540.3,526.8 540.9,530.9 540.3,535.9 539.3,541.2 539.3,548 540.2,550.7 539.6,554.2 533.9,553.4 528.7,553.3 526,553.6 
		521.6,553.5 514.2,553.8 508.7,554.6 504.2,555.2 502.3,554.6 496.3,554.2 491.9,553.8 487.7,554.6 485.3,554.2 474.3,554.2 
		469.6,554.6 458.2,554.2 454,554 444.9,554.8 437,555.4 432.9,555.2 428.7,555.2 422.4,554 419.4,554.2 419.8,550.7 420.7,548 
		420.7,541.2 419.7,535.9 419.1,530.9 419.7,526.8 419.1,520.9 419.1,514.4 419.7,512 419.1,509 419.1,499.7 419.7,495.9 
		418.8,492.3 419.1,488.8 419.3,483.2 418.5,481.6 418.2,477.6 420.1,471.8 421.8,465.1 420.5,458.3 421,457 419.7,452.2 
		419.1,445.4 419.3,442.7 419.1,437.6 418.5,435.1 419.1,432.1 418.5,428.5 418.8,427.1 419.7,423.4 418.5,422.6 419.3,416.7 
		419.1,408.2 419.8,402.3 419.3,397.2 418,391.1 418.5,388.3 418.8,380.7 418.2,377.6 418.2,370.2 418.8,368.5 417.7,365.7 
		418.2,362.8 418.8,358.8 419.7,357.5 418.8,354.5 417.7,350.9 417.2,346 417.4,342.9 416.8,341.1 417.2,331.9 417.7,330 417.4,327 
		418,321.2 419.8,317.6 420.7,314.3 420.7,310.4 419.1,302.5 419.3,298.6 418.5,295.3 418.5,287 419.3,284.3 419.7,277.5 
		419.1,267.2 418.2,262.8 419.1,256.4 419.8,253.4 419.8,248.2 420.7,245.5 420.7,238.6 419.7,233.4 419.1,228.3 419.7,224.3 
		419.1,218.3 419.1,211.8 419.7,209.5 419.1,206.5 419.1,197.1 419.7,193.4 418.8,189.8 419.1,186.2 419.3,180.7 418.5,179.1 
		418.2,175 420.1,169.2 421.8,162.6 420.5,155.7 421,154.4 419.7,149.7 419.1,142.9 419.3,140.2 419.1,135 418.5,132.6 419.1,129.6 
		418.5,126 418.8,124.5 419.7,120.8 418.5,120 419.3,114.2 419.1,105.7 419.8,99.9 418.8,93 417.7,87.9 418.5,85.7 419.7,86.2 
		422.6,86 428.9,85 433.1,85 437.2,84.6 445.1,85.2 454.2,86 458.3,85.7 469.9,85.4 474.5,85.8 485.5,85.8 488,85.4 492.1,86.2 
		496.5,85.8 502.5,85.4 504.4,85 508.9,85.4 514.4,86.2 521.8,86.6 526.1,86.4 528.9,86.8 534,86.7 541.5,85.7 542.3,87.9 541.2,93 
		540.2,99.9 540.9,105.7 540.7,114.2 541.5,120 540.3,120.8 541.2,124.5 541.5,126 540.9,129.6 541.5,132.6 540.9,135 540.7,140.2 
		540.9,142.9 540.3,149.7 539,154.4 539.5,155.7 538.2,162.6 539.9,169.2 541.8,175 541.5,179.1 540.7,180.7 540.9,186.2 
		541.2,189.8 540.3,193.4 540.9,197.1 540.9,206.5 540.3,209.5 540.9,211.8 540.9,218.3 540.3,224.3 540.9,228.3 540.3,233.4 
		539.3,238.6 539.3,245.5 540.2,248.2 540.2,253.4 540.9,256.4 541.8,262.8 540.9,267.2 540.3,277.5 540.7,284.3 541.5,287 
		541.5,295.3 540.7,298.6 540.9,302.5 539.3,310.4 539.3,314.3 540.2,317.6 542,321.2 542.6,327 542.3,330 542.8,331.9 543.2,341.1 
		542.6,342.9 542.8,346 542.3,350.9 541.2,354.5 540.3,357.5 541.2,358.8 541.8,362.8 542.3,365.7 541.2,368.5 541.8,370.2 
		541.8,377.6 541.2,380.7 541.5,388.3 542,391.1 540.7,397.2 	"/>
	<polygon class="st1" points="477.9,130.5 482.1,130.5 482.1,184.7 477.9,184.7 	"/>
	<polygon class="st1" points="477.9,292.9 482.1,292.9 482.1,347.1 477.9,347.1 	"/>
	<polygon class="st1" points="477.9,455.3 482.1,455.3 482.1,509.5 477.9,509.5 	"/>
</g>
</svg>
