<?xml version="1.0" encoding="utf-8"?>
<!-- Generator: Adobe Illustrator 26.0.2, SVG Export Plug-In . SVG Version: 6.00 Build 0)  -->
<svg version="1.1" id="Layer_1" xmlns="http://www.w3.org/2000/svg" xmlns:xlink="http://www.w3.org/1999/xlink" x="0px" y="0px"
	 viewBox="0 0 960 640" style="enable-background:new 0 0 960 640;" xml:space="preserve">
<style type="text/css">
	.st0{fill-rule:evenodd;clip-rule:evenodd;fill:#C5C5C5;}
	.st1{fill-rule:evenodd;clip-rule:evenodd;fill:#FFFFFF;}
</style>
<g>
	<path class="st0" d="M333.5,81.6c0,239,0,237.7,0,476.7l0,0h293.1l0,0c0-158.8,0-317.7,0-476.7l0,0H333.5L333.5,81.6z"/>
	<polygon class="st1" points="458.5,554.4 458.5,85.4 446.6,85.4 446.6,554.4 	"/>
	<path class="st1" d="M368,309c1.2-11.7,2.5-23.3,3.7-35.2c0,0,0,0,0-0.2c0,0,0,0,0-0.2c0-0.5,0-1-0.2-1.2c0,0,0,0,0-0.2
		c-1.5-1.7-2.5-5.7-2.5-10.2c0-6.2,1.7-11.2,4-11.2c0.5,0,1,0,1.5,0c1.7,0,3.5,0,5.5,0c0,3.7,0,7.4,0,11.2c-1.5,0-3.2,0-5,0
		c-0.2,0-0.5,0-1,0c-0.2,0-0.5,0.5-0.5,1.2c0,0.5,0,1,0.2,1.2c0,0,0,0,0,0.2c1.2,2,2.2,4.5,2.2,8.4c0,1.7-0.2,2.2-0.2,4
		c-0.2,1-0.7,5.7-0.7,5.7c9.2,0,18.4,0,27.8,0c0.5-3.7,1-7.4,1.5-11.2c-2-1.2-4-2.7-6.2-4.2c-0.5-0.5-0.7-1.5-0.7-2.7
		c0-1.5,0.5-2.7,1-2.7c4.7,0,9.4,0,14.1,0l0,0c0,6.2-1.7,11.2-4,11.2c-0.5,3.2-1,6.5-1.5,9.7c1.7,8.9,3.5,17.9,5.2,26.8l0,0
		c0,0,0,0,0-0.2c2-2,3.7-3,5.7-3c8.4,0,15.1,18.9,15.1,41.7c0,23.1-6.7,41.9-15.1,41.9c-7.7,0-14.1-16.4-15.1-37.7l0,0
		c-0.5,0-1,0-1.7,0l0,0c-0.2,4.2-1.2,7.4-2.5,9.7l0,0c0.5,2.7,1,5.5,1.5,8.4c0.7,0,1.5,0,2.5,0c0,1.7,0,3.5,0,5.5c-0.5,0-1,0-1.7,0
		c-0.2,1-0.5,1.5-1,1.5c-0.5,0-1-0.5-1.2-1.5c-0.5,0-1.2,0-2,0c0-1.7,0-3.5,0-5.5c0.5,0,1.2,0,2,0c-0.5-2-1-4.2-1.5-6.5l0,0
		c-0.7,0.7-1,1-1.7,1c-3.5,0-6.2-7.7-6.2-16.9c0-1.5,0-3.2,0.2-4.7c0,0,0,0,0-0.2c-5.7-10.9-11.4-21.8-17.4-32.8
		c0,1.5-0.2,3-0.5,4.5c0,0,0,0,0,0.2l0,0c4,8.2,6,19.9,6,33c0,23.1-6.7,41.9-15.1,41.9c-8.4,0-15.1-18.9-15.1-41.9
		c0-22.8,6.7-41.7,15.1-41.7c2.5,0,3.2,0.5,5.5,3C367.7,309,367.7,309,368,309L368,309z M391,347.7c0,6.2,2,11.2,4.2,11.2
		c2,0,4-5,4-11.2c0-6-2-11.2-4-11.2C393,336.5,391,341.7,391,347.7L391,347.7z M369.9,328.1c-0.2,2.2-0.5,4.7-0.7,7.2
		c-0.7,7.9-3.7,14.4-6.7,16.6c0,0,0,0-0.2,0c-0.7,0-1.5-2-1.5-4.2c0-1.2,0.2-2.5,0.5-3.2c0,0,0-0.2,0.2-0.5c1.7-3.2,3.2-6.9,4-11.7
		c0.2-3.7,0.5-7.4,1-11.2l0,0c-1.2-1.7-2.7-2.5-4.2-2.5c-6,0-10.7,12.9-10.7,29s4.7,29.3,10.7,29.3c6,0,10.7-13.2,10.7-29.3
		c0-7.4-1-14.4-2.7-19.6C370.2,328.1,370.2,328.1,369.9,328.1L369.9,328.1z M399.2,335.3c2-13.6,4-27.3,6-41.2
		c1.2,6.5,2.5,13.2,4,19.9c0,0,0,0-0.2,0c-3.5,7.2-5.7,17.4-6.2,29.5l0,0c-0.5,0-1,0-1.7,0l0,0c-0.2-3.2-0.7-5.7-1.7-7.9
		C399.2,335.5,399.2,335.5,399.2,335.3L399.2,335.3z M411.1,325.1c-2,5-3.2,10.9-3.7,18.4c0,0,0,0,0,0.2c2.5,0,5,0,7.4,0
		C413.6,337.5,412.4,331.3,411.1,325.1L411.1,325.1L411.1,325.1z M419.3,345.9c0,0.5,0,1.2,0,1.7c0,2.2-0.5,4.2-1.5,4.2
		c-3.5,0-6.9,0-10.4,0c0,0,0,0,0,0.2c0.7,14.1,5.2,24.8,10.4,24.8c6,0,10.7-13.2,10.7-29.3s-4.7-29-10.7-29c-1.2,0-2.5,0.5-3.5,1.5
		C415.8,328.6,417.6,337.2,419.3,345.9L419.3,345.9z M391.8,333.8c-0.5-2.7-1-5.5-1.5-8.2c-0.7,0-1.5,0-2.5,0c0-1.7,0-3.7,0-5.7
		c0.5,0,1,0,1.7,0l0,0c0.2-1,0.5-1.2,1-1.2c0.5,0,0.7,0.5,1.2,1.2l0,0c0.5,0,1.2,0,2,0c0,1.7,0,3.7,0,5.7c-0.5,0-1,0-1.7,0
		c0.2,2,0.5,4.2,1,6.5c0,0,0,0,0.2-0.2c0.5-0.5,1.2-0.7,2-0.7c0,0,0,0,0.2,0l0,0c1.7-12.9,3.7-25.8,5.7-39c-8.9,0-18.1,0-27.3,0
		c-0.2,2.5-0.5,5.2-0.7,7.9c6,11.4,11.9,23.1,18.1,34.7C391.3,334.5,391.5,334.3,391.8,333.8L391.8,333.8z"/>
</g>
</svg>
